<svg width="125" height="22" viewBox="0 0 125 22" fill="none" xmlns="http://www.w3.org/2000/svg">
<g opacity="0.3" clip-path="url(#clip0_205_23)">
<path d="M35.5851 4.67639L41.5551 4.67608C46.6676 4.67582 49.9002 7.20439 49.9005 11.1492C49.9009 15.094 46.6852 17.6229 41.5563 17.6232L35.5862 17.6235L35.5851 4.67639ZM41.4241 15.2589C44.64 15.2587 46.4045 13.6781 46.4043 11.162C46.4041 8.63331 44.6393 7.05294 41.4234 7.0531L39.0816 7.05322L39.0823 15.259L41.4241 15.2589Z" fill="white"/>
<path d="M58.9545 10.7821C58.4927 10.5672 57.8825 10.4661 57.2393 10.4661C56.0849 10.4661 55.1449 10.934 54.8976 11.7938L54.8981 17.6352L51.5008 17.6353L51.5 8.20316L54.9138 8.20299L54.9138 9.12597C55.4415 8.45583 56.4475 7.98797 57.6679 7.9879C58.2451 7.98787 58.7728 8.07635 58.9542 8.1522L58.9545 10.7821Z" fill="white"/>
<rect x="0.50001" y="0.500008" width="159" height="59" rx="5.5" transform="matrix(1 1.56627e-05 2.04296e-05 1 -23.1308 -17.0004)" stroke="#1B1B1B"/>
<path d="M65.7662 17.8496C62.1875 17.8497 59.7301 15.8269 59.7298 12.9315C59.7295 10.0234 62.1866 7.98767 65.7654 7.98748C69.3441 7.9873 71.785 10.0102 71.7853 12.9309C71.7855 15.8263 69.3449 17.8494 65.7662 17.8496ZM65.7655 10.2128C64.0504 10.2129 63.127 11.3508 63.1271 12.9313C63.1272 14.4865 64.0674 15.637 65.766 15.6369C67.4647 15.6368 68.4046 14.4988 68.4045 12.931C68.4043 11.3506 67.4642 10.2127 65.7655 10.2128Z" fill="white"/>
<path d="M76.6675 21.1237L73.2537 21.1238L73.2526 8.20199L76.6664 8.20182L76.6664 8.98573C77.2106 8.47995 78.431 7.99943 79.7503 7.99936C83.329 7.99918 85.3577 10.2749 85.3579 12.9427C85.3582 15.5979 83.3299 17.8612 79.7512 17.8614C78.4318 17.8615 77.2114 17.3811 76.6671 16.8754L76.6675 21.1237ZM76.6669 14.4731C77.0793 15.1305 77.9864 15.573 78.9759 15.573C80.8229 15.5729 81.9278 14.4349 81.9277 12.9303C81.9275 11.413 80.8225 10.2752 78.9754 10.2753C77.9529 10.2753 77.0789 10.7432 76.6667 11.3754L76.6669 14.4731Z" fill="white"/>
<path d="M90.2729 17.6333L86.8262 17.6335L86.825 3.9151L90.2717 3.91492L90.2722 8.98504C90.8163 8.47926 92.0367 7.99874 93.356 7.99867C96.9347 7.99849 98.9469 10.2363 98.9472 12.9421C98.9474 15.6478 96.9356 17.8606 93.3569 17.8607C92.0376 17.8608 90.8171 17.3804 90.2729 16.8747L90.2729 17.6333ZM90.2726 14.4724C90.652 15.1298 91.5591 15.5723 92.5816 15.5723C94.4287 15.5722 95.5335 14.4342 95.5334 12.9296C95.5333 11.4124 94.4282 10.2745 92.5811 10.2746C91.5916 10.2746 90.6516 10.7425 90.2724 11.3747L90.2726 14.4724Z" fill="white"/>
<path d="M106.204 17.8727C102.625 17.8729 100.168 15.8501 100.168 12.9547C100.167 10.0466 102.624 8.01086 106.203 8.01068C109.782 8.01049 112.223 10.0334 112.223 12.954C112.223 15.8494 109.766 17.8726 106.204 17.8727ZM106.203 10.236C104.488 10.2361 103.565 11.374 103.565 12.9545C103.565 14.5097 104.505 15.6602 106.204 15.6601C107.902 15.66 108.842 14.522 108.842 12.9542C108.842 11.3738 107.902 10.2359 106.203 10.236Z" fill="white"/>
<path d="M119.892 12.764L124.378 17.6442L120.601 17.6444L117.962 14.6859L115.291 17.6447L111.712 17.6449L116.148 12.8274L111.975 8.21269L115.752 8.2125L118.127 10.8928L120.534 8.21225L124.113 8.21207L119.892 12.764Z" fill="white"/>
<path d="M9.92357 0.239777L1.0349 4.62759L7.18666 8.43302L16.1248 4.19693L9.92357 0.239777Z" fill="white"/>
<path d="M1.03557 12.1506L9.92502 16.626L16.1256 12.6682L7.18667 8.43303L1.03557 12.1506Z" fill="white"/>
<path d="M16.1256 12.6682L22.3268 16.6253L31.1825 12.1996L25.0472 8.4321L16.1256 12.6682Z" fill="white"/>
<path d="M31.1818 4.66395L22.3254 0.239122L16.1248 4.19691L25.0472 8.43209L31.1818 4.66395Z" fill="white"/>
<path d="M16.1421 13.5153L9.92509 17.4731L7.25331 16.1456L7.25344 17.6376L16.1429 21.721L25.0151 17.6367L25.0149 16.1447L22.3599 17.4724L16.1421 13.5153Z" fill="white"/>
</g>
<defs>
<clipPath id="clip0_205_23">
<rect width="123.688" height="22" fill="white" transform="matrix(1 -5.14632e-05 8.75555e-05 1 0.869568 0)"/>
</clipPath>
</defs>
</svg>
