<svg width="88" height="14" viewBox="0 0 88 14" fill="none" xmlns="http://www.w3.org/2000/svg">
<path d="M6.12956 3.83051L7.5226 3.83041C8.39325 3.83035 9.29874 4.00442 9.29881 5.01438C9.29886 5.88503 8.74169 6.51193 7.10487 6.51204L5.57253 6.51214L6.12956 3.83051ZM0.000854492 13.6867L4.04067 13.6864L4.87622 9.68135L7.62747 9.68117C11.1101 9.68093 13.3736 7.38227 13.3734 4.70067C13.3732 1.77529 11.806 0.417181 9.36815 0.417345L2.78604 0.417786L0.000854492 13.6867Z" fill="white"/>
<path d="M18.3538 4.97895L18.8417 8.94907L16.2994 8.94925L18.3538 4.97895ZM9.61309 13.686L13.7922 13.6857L14.802 11.8051L19.1205 11.8048L19.3295 13.6854L23.3345 13.6851L21.3137 0.416547L17.2739 0.416818L9.61309 13.686Z" fill="white"/>
<path d="M25.0407 8.80934L22.1844 0.416478L26.2939 0.416202L27.5479 5.36141L30.7864 0.415901L35.5924 0.415578L29.1153 8.77424L28.1057 13.6848L24.0311 13.685L25.0407 8.80934Z" fill="white"/>
<path d="M45.344 8.63378C45.1003 9.99201 44.0558 13.9971 38.5185 13.9974C34.6528 13.9977 32.8069 11.4903 32.8066 7.9381C32.8063 3.65451 35.4877 0.0672523 40.0151 0.0669484C42.9753 0.0667497 45.6221 1.35513 45.692 5.32529L41.8264 5.32555C41.8611 4.07181 41.269 3.37533 40.0153 3.37541C37.7516 3.37557 36.9159 5.98757 36.9161 7.86817C36.9161 8.9826 37.1949 10.6542 39.0755 10.6541C40.364 10.654 41.0953 9.78332 41.339 8.59922L45.344 8.63378Z" fill="white"/>
<path d="M47.7116 0.41477L51.8211 0.414494L50.8463 5.01159L54.5727 5.01134L55.5475 0.414244L59.6569 0.413968L56.8717 13.6828L52.7971 13.6831L53.8764 8.42433L50.15 8.42458L49.0359 13.6834L44.9613 13.6836L47.7116 0.41477Z" fill="white"/>
<path d="M60.7361 0.413899L71.7063 0.413162L71.01 3.82615L64.1145 3.82662L63.7663 5.46346L70.1743 5.46303L69.5128 8.63224L63.1048 8.63267L62.7567 10.2695L69.7915 10.269L69.0952 13.682L57.9509 13.6828L60.7361 0.413899Z" fill="white"/>
<path d="M74.5281 6.6468L71.463 0.413156L75.9208 0.412857L77.2095 3.86054L79.8561 0.412593L84.6969 0.412268L79.16 6.64649L82.3993 13.6811L77.8022 13.6814L76.3393 9.98997L73.24 13.6817L68.2251 13.6821L74.5281 6.6468Z" fill="white"/>
<path d="M85.2187 1.00427C85.2187 0.516708 85.5669 0.133599 86.0545 0.133566C86.5072 0.133536 86.8903 0.516596 86.8903 1.00416C86.8904 1.49172 86.5421 1.87483 86.0546 1.87487C85.6018 1.8749 85.2187 1.49184 85.2187 1.00427ZM85.0446 1.00428C85.0446 1.59633 85.4974 2.01421 86.0546 2.01417C86.6118 2.01413 87.0645 1.59619 87.0645 1.00415C87.0644 0.446932 86.6117 -0.00577471 86.0545 -0.0057373C85.4972 -0.0056999 85.0445 0.447068 85.0446 1.00428ZM85.6715 1.59628L85.8456 1.59627L85.8456 1.10871L86.0197 1.1087L86.3332 1.63106L86.5421 1.63105L86.1938 1.10868C86.368 1.10867 86.5073 1.00419 86.5072 0.79523C86.5072 0.551448 86.3679 0.446979 86.0893 0.446998L85.6714 0.447026L85.6715 1.59628ZM85.8455 0.586318L86.0893 0.586302C86.2286 0.586293 86.3331 0.621111 86.3331 0.760415C86.3331 0.934545 86.1938 0.969381 86.0197 0.969392L85.8456 0.969404L85.8455 0.586318Z" fill="white"/>
</svg>
