<svg width="79" height="25" viewBox="0 0 79 25" fill="none" xmlns="http://www.w3.org/2000/svg">
<g opacity="0.3">
<path fill-rule="evenodd" clip-rule="evenodd" d="M78.8881 12.9133C78.8876 8.64089 76.188 5.26979 71.0291 5.27C65.8484 5.2702 62.7143 8.64153 62.7147 12.8806C62.7153 17.904 66.4161 20.4406 71.7274 20.4404C74.3177 20.4403 76.2768 19.9896 77.7569 19.3554L77.7565 16.0175C76.2764 16.585 74.5785 16.9356 72.4235 16.9356C70.3121 16.9357 68.44 16.3684 68.2003 14.3991L78.8447 14.3986C78.8447 14.1817 78.8881 13.3138 78.8881 12.9133ZM68.1347 11.3283C68.1345 9.44239 69.6363 8.65795 71.0077 8.65789C72.3355 8.65784 73.7505 9.44217 73.7507 11.328L68.1347 11.3283Z" fill="white"/>
<path fill-rule="evenodd" clip-rule="evenodd" d="M54.3108 5.27081C52.1776 5.27089 50.8063 6.03865 50.0445 6.57273L49.7614 5.53802L44.9726 5.5382L44.9748 24.9977L50.4166 24.1129L50.4378 19.3899C51.2215 19.8238 52.3752 20.4413 54.2907 20.4412C58.1871 20.441 61.7349 18.0377 61.7343 12.7472C61.712 7.9074 58.1201 5.27066 54.3108 5.27081ZM53.006 16.7696C51.7218 16.7697 50.9599 16.4193 50.4374 15.9854L50.4149 9.79371C50.9808 9.3097 51.7644 8.97589 53.0052 8.97584C54.986 8.97576 56.3575 10.678 56.3578 12.8643C56.358 15.1006 55.0086 16.7696 53.006 16.7696Z" fill="white"/>
<path fill-rule="evenodd" clip-rule="evenodd" d="M37.4844 4.28716L42.948 3.38573L42.9476 -0.0021687L37.484 0.882573L37.4844 4.28716Z" fill="white"/>
<path d="M42.9479 5.55527L37.4845 5.55548L37.4862 20.1583L42.9496 20.1581L42.9479 5.55527Z" fill="white"/>
<path fill-rule="evenodd" clip-rule="evenodd" d="M31.6289 6.79072L31.2805 5.55574L26.5788 5.55593L26.5804 20.1588L32.0222 20.1586L32.0211 10.262C33.3052 8.97692 35.482 9.21048 36.1568 9.39403L36.1563 5.55555C35.4598 5.35531 32.913 4.98825 31.6289 6.79072Z" fill="white"/>
<path fill-rule="evenodd" clip-rule="evenodd" d="M20.7444 1.93479L15.4334 2.80283L15.4131 16.1707C15.4134 18.6407 17.8298 20.4597 21.0513 20.4596C22.8362 20.4595 24.1422 20.2091 24.8604 19.9087L24.86 16.5208C24.1635 16.7378 20.7244 17.5056 20.7241 15.0357L20.7235 9.11107L24.8592 9.1109L24.8588 5.55614L20.7231 5.55631L20.7444 1.93479Z" fill="white"/>
<path fill-rule="evenodd" clip-rule="evenodd" d="M6.02986 9.79614C6.0298 9.14527 6.72634 8.8949 7.88002 8.89484C9.53435 8.89475 11.6241 9.27849 13.2785 9.96266L13.2781 6.04072C11.4714 5.49008 9.6864 5.27321 7.8797 5.2733C3.46089 5.27353 0.522433 7.04273 0.522691 9.9967C0.523095 14.6029 8.79469 13.8681 8.79486 15.8541C8.79493 16.6218 7.92425 16.8722 6.70527 16.8723C4.89856 16.8724 2.59116 16.3051 0.762619 15.5375L0.762967 19.5095C2.7874 20.1769 4.83358 20.4605 6.70558 20.4604C11.2332 20.4602 14.3458 18.7411 14.3456 15.7537C14.3234 10.7804 6.03002 11.6653 6.02986 9.79614Z" fill="white"/>
</g>
</svg>
