<svg width="109" height="20" viewBox="0 0 109 20" fill="none" xmlns="http://www.w3.org/2000/svg">
<g opacity="0.3">
<path fill-rule="evenodd" clip-rule="evenodd" d="M1.17139 14.7486L4.99848 12.5009C7.03106 14.5351 9.18948 15.4725 11.5945 15.4724C13.9863 15.4722 16.0852 14.5455 18.0264 12.5271L21.9066 14.7206C19.1078 17.6307 15.6256 19.1682 11.5949 19.1684C7.57752 19.1686 4.06274 17.6423 1.17139 14.7486Z" fill="white"/>
<path fill-rule="evenodd" clip-rule="evenodd" d="M11.5814 4.98005L4.76983 9.48054L1.6226 6.68073L11.5945 0.0921382L21.49 6.68484L18.3278 9.47471L11.5814 4.98005Z" fill="white"/>
<path d="M48.031 3.88945L44.1743 3.88965L44.1753 16.2099L48.0321 16.2097L48.031 3.88945Z" fill="white"/>
<path fill-rule="evenodd" clip-rule="evenodd" d="M36.3809 16.2646C34.1073 16.2647 32.2126 15.7 30.6757 14.5703C29.1389 13.4244 28.3809 11.9558 28.3807 10.1643C28.3805 8.35665 29.1594 6.87177 30.696 5.70966C32.2537 4.53138 34.1483 3.95026 36.4008 3.95015C39.1795 3.95001 41.6428 4.86982 43.0743 6.30618L40.5693 8.32376C39.3693 7.3393 38.0641 6.83905 36.6537 6.83912C35.4537 6.83918 34.4644 7.14587 33.6434 7.77536C32.8435 8.40485 32.4436 9.19572 32.4437 10.1479C32.4438 11.0679 32.8438 11.8426 33.6438 12.472C34.4649 13.0852 35.4543 13.3918 36.6332 13.3918C38.17 13.3917 39.5172 12.8751 40.6328 11.8583L43.2435 13.7788C42.5279 14.5051 41.5593 15.1023 40.3594 15.5704C39.1598 16.0385 37.8334 16.2645 36.3809 16.2646Z" fill="white"/>
<path fill-rule="evenodd" clip-rule="evenodd" d="M53.8159 4.87472C53.816 5.7593 52.8811 6.47642 51.7272 6.47648C50.5733 6.47654 49.6379 5.75952 49.6379 4.87494C49.6378 3.99039 50.5731 3.27327 51.7269 3.27321C52.8808 3.27315 53.8159 3.99017 53.8159 4.87472ZM53.6555 7.21557L49.7987 7.21577L49.7995 16.2096L53.6562 16.2094L53.6555 7.21557Z" fill="white"/>
<path fill-rule="evenodd" clip-rule="evenodd" d="M61.1114 16.2795C59.2801 16.2796 57.8063 15.8439 56.6486 14.9724C55.5116 14.1009 54.9429 12.9873 54.9428 11.6155C54.9427 10.2436 55.5112 9.12995 56.6688 8.25839C57.8267 7.38679 59.3212 6.95095 61.1738 6.95085C63.5949 6.95073 65.7209 7.85441 66.7105 9.54903L63.7423 10.7435C63.1529 9.98498 62.332 9.59766 61.2583 9.59772C60.4795 9.59776 59.8477 9.79147 59.3427 10.1788C58.8584 10.5662 58.6059 11.0504 58.6059 11.6153C58.606 12.7935 59.7218 13.665 61.2167 13.6649C62.29 13.6648 63.2794 13.2129 63.7005 12.5188L66.6689 13.8744C65.6584 15.3593 63.5746 16.2794 61.1114 16.2795Z" fill="white"/>
<path fill-rule="evenodd" clip-rule="evenodd" d="M71.4933 3.88823L67.6366 3.88843L67.6377 16.2087L71.4944 16.2085L71.4941 13.0721L71.9459 12.7489L75.4717 16.2083L79.9583 16.208L74.5412 10.8932L79.6864 7.21424L74.9738 7.21449L71.4938 9.7029L71.4933 3.88823Z" fill="white"/>
<path fill-rule="evenodd" clip-rule="evenodd" d="M80.6535 11.5524L80.6529 3.88776L84.6706 3.88755L84.6713 11.3806C84.6714 12.7202 85.6896 13.3657 87.1622 13.3656C88.6132 13.3655 89.6529 12.6876 89.6528 11.3803L89.6521 3.88729L93.6695 3.88709L93.6702 11.5518C93.6705 15.0702 90.4487 16.3938 87.1625 16.3939C83.8974 16.3941 80.6538 15.0708 80.6535 11.5524Z" fill="white"/>
<path fill-rule="evenodd" clip-rule="evenodd" d="M102.349 16.4533C105.455 16.4531 107.973 14.357 107.973 11.7713C107.972 9.18568 105.454 7.08975 102.348 7.08991C101.082 7.08997 99.9133 7.43829 98.9731 8.02602L98.973 7.2133L95.277 7.21349L95.2781 19.9033L98.9742 19.9032L98.9738 15.5175C99.9141 16.1052 101.082 16.4534 102.349 16.4533ZM98.9734 11.7766L98.9734 11.7669C98.9767 10.6124 100.162 9.67727 101.625 9.67719C103.089 9.67712 104.277 10.6148 104.277 11.7715C104.277 12.9282 103.09 13.866 101.625 13.8661C100.163 13.8661 98.9769 12.9311 98.9734 11.7766Z" fill="white"/>
</g>
</svg>
